<svg width="25" height="27" viewBox="0 0 25 27" fill="none" xmlns="http://www.w3.org/2000/svg">
<g clip-path="url(#clip0_37_156)">
<path fill-rule="evenodd" clip-rule="evenodd" d="M20 8.3515C20 7.75334 20.4477 7.26843 21 7.26843H22.5C23.6046 7.26843 24.5 8.23824 24.5 9.43457V24.5975C24.5 25.7939 23.6046 26.7636 22.5 26.7636H8.5C7.39543 26.7636 6.5 25.7939 6.5 24.5975V22.9729C6.5 22.3747 6.94772 21.8898 7.5 21.8898C8.05228 21.8898 8.5 22.3747 8.5 22.9729V24.5975H22.5V9.43457H21C20.4477 9.43457 20 8.94966 20 8.3515Z" fill="#605D69"/>
<path fill-rule="evenodd" clip-rule="evenodd" d="M2.5 0.77002C1.39543 0.77002 0.5 1.73983 0.5 2.93615V18.0991C0.5 19.2954 1.39543 20.2652 2.5 20.2652H16.5C17.6046 20.2652 18.5 19.2954 18.5 18.0991V2.93615C18.5 1.73983 17.6046 0.77002 16.5 0.77002H2.5Z" fill="#605D69"/>
</g>
<defs>
<clipPath id="clip0_37_156">
<rect width="24" height="25.9936" fill="white" transform="translate(0.5 0.77002)"/>
</clipPath>
</defs>
</svg>
