<svg width="24" height="25" viewBox="0 0 24 25" fill="none" xmlns="http://www.w3.org/2000/svg">
<path d="M10.7721 5.63735C10.3391 5.20438 9.63709 5.20438 9.20412 5.63735C8.77115 6.07032 8.77115 6.77232 9.20412 7.20529L10.7721 5.63735ZM16.2707 12.704L17.0547 13.4879C17.4877 13.055 17.4877 12.353 17.0547 11.92L16.2707 12.704ZM9.20412 18.2027C8.77115 18.6357 8.77115 19.3376 9.20412 19.7706C9.63709 20.2035 10.3391 20.2035 10.7721 19.7706L9.20412 18.2027ZM9.20412 7.20529L15.4868 13.4879L17.0547 11.92L10.7721 5.63735L9.20412 7.20529ZM15.4868 11.92L9.20412 18.2027L10.7721 19.7706L17.0547 13.4879L15.4868 11.92Z" fill="#010409"/>
<path d="M2.59674 12.704H16.2708" stroke="#010409" stroke-width="2.21741" stroke-linecap="round" stroke-dasharray="14.78 14.78"/>
</svg>
